<svg xmlns="http://www.w3.org/2000/svg" viewBox="0 0 1200 400" width="1200" height="400">
  <!-- Background -->
  <rect width="1200" height="400" fill="#000000"/>
  
  <!-- Tokyo street network - Noir theme -->
  <!-- Major highways/motorways - widest, brightest -->
  <path d="M 50 200 Q 200 180, 350 200 Q 500 220, 650 200 Q 800 180, 950 200 Q 1050 210, 1150 200" 
        stroke="#FFFFFF" stroke-width="2.5" fill="none" opacity="0.9"/>
  <path d="M 100 150 Q 250 140, 400 160 Q 600 180, 800 160 Q 950 150, 1100 170" 
        stroke="#FFFFFF" stroke-width="2.5" fill="none" opacity="0.9"/>
  <path d="M 150 250 Q 300 240, 450 260 Q 650 280, 850 260 Q 1000 250, 1150 270" 
        stroke="#FFFFFF" stroke-width="2.5" fill="none" opacity="0.9"/>
        
  <!-- Primary roads -->
  <path d="M 80 120 L 180 125 L 280 118 L 380 128 L 480 120 L 580 125 L 680 122 L 780 128 L 880 120 L 980 125 L 1080 122" 
        stroke="#E0E0E0" stroke-width="1.8" fill="none" opacity="0.85"/>
  <path d="M 120 280 L 220 285 L 320 278 L 420 288 L 520 280 L 620 285 L 720 282 L 820 288 L 920 280 L 1020 285 L 1120 282" 
        stroke="#E0E0E0" stroke-width="1.8" fill="none" opacity="0.85"/>
  <path d="M 200 100 Q 400 90, 600 110 Q 800 120, 1000 100" 
        stroke="#E0E0E0" stroke-width="1.8" fill="none" opacity="0.85"/>
  <path d="M 250 300 Q 450 290, 650 310 Q 850 320, 1050 300" 
        stroke="#E0E0E0" stroke-width="1.8" fill="none" opacity="0.85"/>
        
  <!-- Secondary roads -->
  <path d="M 70 80 L 170 82 L 270 78 L 370 85 L 470 80 L 570 83 L 670 81 L 770 86 L 870 82 L 970 84 L 1070 80 L 1170 85" 
        stroke="#B0B0B0" stroke-width="1.3" fill="none" opacity="0.75"/>
  <path d="M 90 320 L 190 318 L 290 325 L 390 320 L 490 323 L 590 318 L 690 322 L 790 320 L 890 324 L 990 318 L 1090 322" 
        stroke="#B0B0B0" stroke-width="1.3" fill="none" opacity="0.75"/>
  <path d="M 150 60 Q 350 55, 550 70 Q 750 80, 950 65 Q 1050 60, 1150 68" 
        stroke="#B0B0B0" stroke-width="1.3" fill="none" opacity="0.75"/>
  <path d="M 200 340 Q 400 335, 600 350 Q 800 360, 1000 345 Q 1100 340, 1180 348" 
        stroke="#B0B0B0" stroke-width="1.3" fill="none" opacity="0.75"/>
  
  <!-- Tertiary roads - grid pattern -->
  <path d="M 110 190 L 210 192 L 310 188 L 410 195 L 510 190 L 610 193 L 710 191 L 810 196 L 910 192 L 1010 194 L 1110 190" 
        stroke="#808080" stroke-width="1" fill="none" opacity="0.65"/>
  <path d="M 130 210 L 230 208 L 330 215 L 430 210 L 530 213 L 630 208 L 730 212 L 830 210 L 930 214 L 1030 208 L 1130 212" 
        stroke="#808080" stroke-width="1" fill="none" opacity="0.65"/>
  <path d="M 105 170 Q 305 165, 505 180 Q 705 190, 905 175 Q 1005 170, 1105 178" 
        stroke="#808080" stroke-width="1" fill="none" opacity="0.65"/>
  <path d="M 155 230 Q 355 225, 555 240 Q 755 250, 955 235 Q 1055 230, 1155 238" 
        stroke="#808080" stroke-width="1" fill="none" opacity="0.65"/>
  
  <!-- Residential streets - thinnest, darker -->
  <path d="M 85 140 L 185 142 L 285 138 L 385 145 L 485 140 L 585 143 L 685 141 L 785 146 L 885 142 L 985 144 L 1085 140" 
        stroke="#505050" stroke-width="0.7" fill="none" opacity="0.5"/>
  <path d="M 95 260 L 195 258 L 295 265 L 395 260 L 495 263 L 595 258 L 695 262 L 795 260 L 895 264 L 995 258 L 1095 262" 
        stroke="#505050" stroke-width="0.7" fill="none" opacity="0.5"/>
  <path d="M 140 100 L 240 102 L 340 98 L 440 105 L 540 100 L 640 103 L 740 101 L 840 106 L 940 102 L 1040 104 L 1140 100" 
        stroke="#505050" stroke-width="0.7" fill="none" opacity="0.5"/>
  <path d="M 160 300 L 260 298 L 360 305 L 460 300 L 560 303 L 660 298 L 760 302 L 860 300 L 960 304 L 1060 298 L 1160 302" 
        stroke="#505050" stroke-width="0.7" fill="none" opacity="0.5"/>
  
  <!-- Vertical cross streets -->
  <line x1="200" y1="50" x2="200" y2="350" stroke="#808080" stroke-width="0.8" opacity="0.6"/>
  <line x1="350" y1="60" x2="350" y2="340" stroke="#B0B0B0" stroke-width="1.2" opacity="0.7"/>
  <line x1="500" y1="55" x2="500" y2="345" stroke="#E0E0E0" stroke-width="1.6" opacity="0.8"/>
  <line x1="600" y1="50" x2="600" y2="350" stroke="#FFFFFF" stroke-width="2" opacity="0.85"/>
  <line x1="750" y1="60" x2="750" y2="340" stroke="#B0B0B0" stroke-width="1.2" opacity="0.7"/>
  <line x1="900" y1="55" x2="900" y2="345" stroke="#808080" stroke-width="0.9" opacity="0.65"/>
  <line x1="1050" y1="50" x2="1050" y2="350" stroke="#505050" stroke-width="0.7" opacity="0.55"/>
  
  <!-- Additional cross streets for density -->
  <line x1="450" y1="80" x2="450" y2="320" stroke="#505050" stroke-width="0.6" opacity="0.5"/>
  <line x1="550" y1="70" x2="550" y2="330" stroke="#505050" stroke-width="0.6" opacity="0.5"/>
  <line x1="800" y1="75" x2="800" y2="325" stroke="#808080" stroke-width="0.8" opacity="0.6"/>
  <line x1="300" y1="65" x2="300" y2="335" stroke="#505050" stroke-width="0.6" opacity="0.5"/>
  <line x1="650" y1="60" x2="650" y2="340" stroke="#808080" stroke-width="0.8" opacity="0.6"/>
  
  <!-- Diagonal roads for realism -->
  <path d="M 100 100 L 400 300" stroke="#B0B0B0" stroke-width="1.1" fill="none" opacity="0.7"/>
  <path d="M 500 80 L 800 320" stroke="#E0E0E0" stroke-width="1.5" fill="none" opacity="0.75"/>
  <path d="M 300 350 L 700 70" stroke="#808080" stroke-width="0.9" fill="none" opacity="0.65"/>
  <path d="M 850 100 L 1100 280" stroke="#505050" stroke-width="0.7" fill="none" opacity="0.55"/>
  
  <!-- Major intersections/nodes -->
  <circle cx="600" cy="200" r="3" fill="#FFFFFF" opacity="0.8"/>
  <circle cx="350" cy="160" r="2" fill="#E0E0E0" opacity="0.7"/>
  <circle cx="500" cy="200" r="2.5" fill="#E0E0E0" opacity="0.75"/>
  <circle cx="750" cy="240" r="2" fill="#B0B0B0" opacity="0.7"/>
  <circle cx="900" cy="180" r="1.8" fill="#B0B0B0" opacity="0.65"/>
  
  <!-- Text labels -->
  <text x="600" y="375" font-family="sans-serif" font-size="24" font-weight="300" fill="#FFFFFF" text-anchor="middle" opacity="0.9">TOKYO</text>
  <text x="600" y="390" font-family="sans-serif" font-size="12" font-weight="300" fill="#888888" text-anchor="middle" opacity="0.7">東京 • 35.6762° N, 139.6503° E</text>
</svg>
