<svg xmlns="http://www.w3.org/2000/svg" viewBox="0 0 600 700" width="600" height="700">
  <rect width="600" height="700" fill="#0d0d0d" rx="12"/>

  <!-- Subtle grid lines -->
  <line x1="0" y1="350" x2="600" y2="350" stroke="#1a1a1a" stroke-width="1"/>
  <line x1="300" y1="0" x2="300" y2="700" stroke="#1a1a1a" stroke-width="1"/>

  <!-- Glow filter -->
  <defs>
    <filter id="glow">
      <feGaussianBlur stdDeviation="3" result="blur"/>
      <feMerge><feMergeNode in="blur"/><feMergeNode in="SourceGraphic"/></feMerge>
    </filter>
  </defs>

  <!-- HOKKAIDO -->
  <path filter="url(#glow)" fill="#E0182D" fill-opacity="0.85" stroke="#ff4444" stroke-width="0.8"
    d="M 310 60
       C 295 55, 270 62, 258 75
       C 245 88, 238 105, 242 120
       C 246 135, 255 145, 268 150
       C 280 155, 295 152, 308 145
       C 325 136, 340 120, 348 105
       C 356 90, 352 72, 340 65
       Z"/>
  <!-- Hokkaido eastern peninsula -->
  <path filter="url(#glow)" fill="#E0182D" fill-opacity="0.85" stroke="#ff4444" stroke-width="0.8"
    d="M 340 80 C 355 78, 375 85, 385 100 C 392 112, 388 128, 378 135 C 365 143, 350 138, 340 128 Z"/>

  <!-- HONSHU - main island -->
  <path filter="url(#glow)" fill="#c0121f" fill-opacity="0.9" stroke="#ff4444" stroke-width="0.8"
    d="M 265 165
       C 258 172, 252 182, 248 195
       C 242 212, 240 230, 244 248
       C 248 265, 258 278, 268 290
       C 275 300, 278 312, 272 322
       C 265 334, 252 340, 245 352
       C 238 364, 238 378, 244 390
       C 250 402, 260 410, 272 415
       C 285 420, 300 418, 312 410
       C 326 400, 334 385, 338 368
       C 342 350, 338 332, 330 316
       C 322 300, 310 288, 305 272
       C 300 256, 302 238, 310 223
       C 318 208, 330 196, 338 182
       C 344 170, 342 158, 334 150
       C 326 143, 314 142, 304 148
       C 292 155, 278 162, 265 165
       Z"/>

  <!-- Kii Peninsula -->
  <path filter="url(#glow)" fill="#c0121f" fill-opacity="0.85" stroke="#ff4444" stroke-width="0.6"
    d="M 272 350 C 265 360, 260 375, 263 388 C 266 400, 275 408, 285 405 C 295 402, 300 390, 297 378 C 294 366, 284 356, 272 350 Z"/>

  <!-- SHIKOKU -->
  <path filter="url(#glow)" fill="#E0182D" fill-opacity="0.82" stroke="#ff4444" stroke-width="0.7"
    d="M 248 420
       C 238 425, 228 435, 225 447
       C 222 460, 228 472, 238 478
       C 250 484, 265 480, 275 470
       C 286 460, 290 445, 285 433
       C 280 422, 264 416, 248 420
       Z"/>

  <!-- KYUSHU -->
  <path filter="url(#glow)" fill="#E0182D" fill-opacity="0.85" stroke="#ff4444" stroke-width="0.7"
    d="M 200 380
       C 188 385, 178 396, 175 410
       C 172 424, 178 438, 188 446
       C 200 454, 215 452, 226 444
       C 238 435, 244 420, 240 406
       C 236 392, 222 382, 208 380
       Z"/>

  <!-- Ryukyu chain (simplified dots) -->
  <circle filter="url(#glow)" cx="185" cy="500" r="5" fill="#E0182D" fill-opacity="0.75" stroke="#ff4444" stroke-width="0.5"/>
  <circle filter="url(#glow)" cx="172" cy="520" r="4" fill="#E0182D" fill-opacity="0.7" stroke="#ff4444" stroke-width="0.5"/>
  <circle filter="url(#glow)" cx="160" cy="540" r="3.5" fill="#E0182D" fill-opacity="0.65" stroke="#ff4444" stroke-width="0.5"/>
  <circle filter="url(#glow)" cx="150" cy="558" r="3" fill="#E0182D" fill-opacity="0.6" stroke="#ff4444" stroke-width="0.5"/>
  <circle filter="url(#glow)" cx="142" cy="574" r="2.5" fill="#E0182D" fill-opacity="0.55" stroke="#ff4444" stroke-width="0.5"/>

  <!-- Label -->
  <text x="390" y="300" font-family="monospace" font-size="13" fill="#ff4444" opacity="0.7">日本</text>
  <text x="390" y="318" font-family="monospace" font-size="9" fill="#888" opacity="0.6">JAPAN</text>

  <!-- Coordinates hint -->
  <text x="12" y="692" font-family="monospace" font-size="8" fill="#333">35.6762° N, 139.6503° E</text>
</svg>
